<svg xmlns="http://www.w3.org/2000/svg" width="785.4" height="264.825" viewBox="0 0 785.4 264.825"><g transform="translate(-31.8 -161)"><path d="M201.6-210q30.9,0,43.95,12.3t13.05,37.2v14.4q0,25.2-19.2,38.1,20.7,12,20.7,38.7v17.4a79.788,79.788,0,0,1-2.7,21.6,39.889,39.889,0,0,1-8.85,16.35A39.308,39.308,0,0,1,232.2-3.6Q222,0,207,0H28.8q-9,0-9-9V-201q0-9,9-9ZM65.7-90v44.7q0,3.9,3.9,3.9h123q12,0,17.1-4.35t5.1-13.95V-71.1q0-9.3-5.55-14.1T188.7-90Zm0-32.7h123q15,0,20.4-4.5t5.4-13.2v-10.2q0-9.3-5.25-13.65T192.3-168.6H69.6q-3.9,0-3.9,3.9ZM336.9-210a99.491,99.491,0,0,1,12,.6,23.652,23.652,0,0,1,8.4,2.55,28.225,28.225,0,0,1,6.9,5.4,95.015,95.015,0,0,1,7.5,9.15L483.3-45.9a4.147,4.147,0,0,0,3.9,2.1h2.7q2.4,0,2.4-3V-203.4q0-6.6,6.6-6.6h31.5q6.6,0,6.6,6.6V-31.2q0,18.3-6.6,24.75T510,0H484.2a92.654,92.654,0,0,1-11.55-.6A25.677,25.677,0,0,1,464.4-3a27.453,27.453,0,0,1-7.05-5.25,90.054,90.054,0,0,1-7.95-9.45L337.5-164.1a5.145,5.145,0,0,0-3.9-2.1h-2.7q-2.4,0-2.4,3V-6.6q0,6.6-6.6,6.6H290.4q-6.9,0-6.9-6.6V-178.8q0-18.3,6.6-24.75T310.5-210Zm461.7,0q6.6,0,6.6,6.6V-174q0,6.9-6.6,6.9H648.3a80.117,80.117,0,0,0-19.35,1.95,25.078,25.078,0,0,0-12.15,6.6,26.852,26.852,0,0,0-6.45,12.45,83.6,83.6,0,0,0-1.95,19.8v43.2a85.557,85.557,0,0,0,1.95,19.95,26.919,26.919,0,0,0,6.45,12.6,25.078,25.078,0,0,0,12.15,6.6A80.117,80.117,0,0,0,648.3-42h99q7.8,0,11.4-4.05t3.6-14.25V-84.6q0-3.9-3.6-3.9H670.8q-6.6,0-6.6-6.9v-22.5q0-6.9,6.6-6.9H795.9q9,0,9,9v69.9q0,25.2-9.6,35.55T767.7,0H646.5q-22.8,0-38.7-4.2T581.85-17.85q-10.05-9.45-14.7-24.6T562.5-79.2v-51.6q0-21.6,4.65-36.6t14.7-24.45q10.05-9.45,25.95-13.8T646.5-210Z" transform="translate(12 371)" fill="#fff"/><g transform="translate(0 3)"><path d="M16.06.44Q13.035.44,9.955.248a28.452,28.452,0,0,1-5.39-.8V-37.565q1.21-.22,2.585-.412t2.805-.3q1.43-.11,2.833-.165t2.667-.055a37.185,37.185,0,0,1,6.435.523,16.323,16.323,0,0,1,5.142,1.732,9.005,9.005,0,0,1,3.382,3.19,9.229,9.229,0,0,1,1.21,4.895,8.093,8.093,0,0,1-1.293,4.62,9.16,9.16,0,0,1-3.6,3.08,10.021,10.021,0,0,1,5.115,3.41,9.435,9.435,0,0,1,1.65,5.72q0,5.885-4.29,8.828T16.06.44Zm-4.675-17.6v11.6q1.155.11,2.475.165t2.42.055a27.066,27.066,0,0,0,3.988-.275,10.359,10.359,0,0,0,3.19-.963A5.694,5.694,0,0,0,25.6-8.415a5.117,5.117,0,0,0,.8-2.97,4.664,4.664,0,0,0-2.365-4.51A14.022,14.022,0,0,0,17.49-17.16Zm0-5.445H16.28A14.1,14.1,0,0,0,22.5-23.733a4.119,4.119,0,0,0,2.255-4.042,4.018,4.018,0,0,0-2.337-3.905,13.759,13.759,0,0,0-6.078-1.155q-1.6,0-2.833.055t-2.117.165ZM55.11.825A17.971,17.971,0,0,1,48.4-.3a12.386,12.386,0,0,1-4.648-3.163A12.879,12.879,0,0,1,41.03-8.25a19.768,19.768,0,0,1-.88-6.05V-38.115h6.985V-14.96a14.91,14.91,0,0,0,.577,4.428,7.725,7.725,0,0,0,1.65,3,6.582,6.582,0,0,0,2.53,1.7,9.213,9.213,0,0,0,3.273.55,9.441,9.441,0,0,0,3.3-.55,6.543,6.543,0,0,0,2.558-1.7,7.725,7.725,0,0,0,1.65-3,14.91,14.91,0,0,0,.578-4.428V-38.115h6.985V-14.3a19.215,19.215,0,0,1-.908,6.05,13.194,13.194,0,0,1-2.75,4.785A12.311,12.311,0,0,1,61.875-.3,18.409,18.409,0,0,1,55.11.825Zm23.705-38.94h6.93V0h-6.93ZM118.69-6V0H94.6V-38.115h6.93V-6Zm11.935.275q.605.055,1.6.082t2.7.028q6.985,0,10.423-3.548t3.438-9.928q0-6.49-3.355-9.955t-10.4-3.465a40.361,40.361,0,0,0-4.4.165Zm25.41-13.365a22.074,22.074,0,0,1-1.54,8.608,16.278,16.278,0,0,1-4.372,6.1,18.18,18.18,0,0,1-6.82,3.63A30.975,30.975,0,0,1,134.475.44q-2.31,0-5.225-.193a35.24,35.24,0,0,1-5.555-.8V-37.565a33.389,33.389,0,0,1,5.61-.77q2.97-.165,5.28-.165a31.873,31.873,0,0,1,8.745,1.128,18.015,18.015,0,0,1,6.793,3.52A15.8,15.8,0,0,1,154.5-27.8,22.391,22.391,0,0,1,156.035-19.085Z" transform="translate(61 422)" fill="#fff"/><path d="M30.25,0q-1.87-3.135-4.18-6.738T21.285-14q-2.475-3.657-5.033-7.1T11.385-27.28V0H4.565V-38.115H10.23q2.2,2.31,4.73,5.472t5.087,6.573q2.557,3.41,4.95,6.847t4.262,6.408v-25.3h6.875V0ZM59.675.825A17.971,17.971,0,0,1,52.965-.3a12.386,12.386,0,0,1-4.648-3.163A12.879,12.879,0,0,1,45.6-8.25a19.768,19.768,0,0,1-.88-6.05V-38.115H51.7V-14.96a14.91,14.91,0,0,0,.577,4.428,7.725,7.725,0,0,0,1.65,3,6.582,6.582,0,0,0,2.53,1.7,9.213,9.213,0,0,0,3.273.55,9.441,9.441,0,0,0,3.3-.55,6.543,6.543,0,0,0,2.558-1.7,7.725,7.725,0,0,0,1.65-3,14.91,14.91,0,0,0,.577-4.428V-38.115H74.8V-14.3a19.215,19.215,0,0,1-.908,6.05,13.194,13.194,0,0,1-2.75,4.785A12.311,12.311,0,0,1,66.44-.3,18.409,18.409,0,0,1,59.675.825ZM93.885-38.5q8.25,0,12.623,3.025t4.372,9.24q0,7.755-7.645,10.505,1.045,1.265,2.365,3.08T108.3-8.717q1.375,2.118,2.64,4.345T113.19,0h-7.755q-1.045-1.98-2.255-3.988t-2.448-3.9q-1.238-1.9-2.448-3.575t-2.255-3q-.77.055-1.32.055h-4.4V0H83.38V-37.565a37.1,37.1,0,0,1,5.39-.742Q91.63-38.5,93.885-38.5Zm.5,6q-2.2,0-4.07.165v12.32h3.025A31.854,31.854,0,0,0,97.79-20.3a9.372,9.372,0,0,0,3.217-.99,4.817,4.817,0,0,0,1.952-1.925,6.389,6.389,0,0,0,.66-3.08,6.132,6.132,0,0,0-.66-2.97,4.909,4.909,0,0,0-1.9-1.925A8.979,8.979,0,0,0,98.12-32.2,21.461,21.461,0,0,0,94.38-32.505Zm50.49-5.61v5.995H133.155V0H126.17V-32.12H114.455v-5.995ZM164.56.825A17.971,17.971,0,0,1,157.85-.3,12.385,12.385,0,0,1,153.2-3.465,12.88,12.88,0,0,1,150.48-8.25a19.768,19.768,0,0,1-.88-6.05V-38.115h6.985V-14.96a14.909,14.909,0,0,0,.578,4.428,7.725,7.725,0,0,0,1.65,3,6.582,6.582,0,0,0,2.53,1.7,9.213,9.213,0,0,0,3.272.55,9.441,9.441,0,0,0,3.3-.55,6.543,6.543,0,0,0,2.558-1.7,7.725,7.725,0,0,0,1.65-3,14.91,14.91,0,0,0,.577-4.428V-38.115h6.985V-14.3a19.215,19.215,0,0,1-.908,6.05,13.194,13.194,0,0,1-2.75,4.785,12.311,12.311,0,0,1-4.7,3.163A18.409,18.409,0,0,1,164.56.825ZM198.77-38.5q8.25,0,12.622,3.025t4.372,9.24q0,7.755-7.645,10.505,1.045,1.265,2.365,3.08t2.695,3.933q1.375,2.118,2.64,4.345T218.075,0H210.32q-1.045-1.98-2.255-3.988t-2.448-3.9q-1.237-1.9-2.447-3.575t-2.255-3q-.77.055-1.32.055h-4.4V0h-6.93V-37.565a37.1,37.1,0,0,1,5.39-.742Q196.515-38.5,198.77-38.5Zm.495,6q-2.2,0-4.07.165v12.32h3.025a31.854,31.854,0,0,0,4.455-.275,9.372,9.372,0,0,0,3.217-.99,4.817,4.817,0,0,0,1.952-1.925,6.389,6.389,0,0,0,.66-3.08,6.132,6.132,0,0,0-.66-2.97,4.909,4.909,0,0,0-1.9-1.925,8.979,8.979,0,0,0-2.942-1.017A21.461,21.461,0,0,0,199.265-32.505ZM223.19,0V-38.115h24.475v5.885H230.12v9.4h15.62v5.775H230.12V-5.885h18.865V0Z" transform="translate(298 422)" fill="#fff"/><path d="M22.385-32.89q-5.885,0-8.992,3.658T10.285-19.085a20.171,20.171,0,0,0,.742,5.638,12.426,12.426,0,0,0,2.2,4.372,10.053,10.053,0,0,0,3.63,2.833,11.885,11.885,0,0,0,5.088,1.017,30.787,30.787,0,0,0,3.135-.137,12.737,12.737,0,0,0,2.09-.358v-13.7H34.1V-1.1A32.1,32.1,0,0,1,29.26.11,41.734,41.734,0,0,1,21.4.77,20.712,20.712,0,0,1,13.86-.55a15.629,15.629,0,0,1-5.8-3.85,17.492,17.492,0,0,1-3.712-6.215,25.052,25.052,0,0,1-1.32-8.47,22.907,22.907,0,0,1,1.457-8.47A18.337,18.337,0,0,1,8.47-33.8a16.771,16.771,0,0,1,5.94-3.878A19.934,19.934,0,0,1,21.67-39a27.741,27.741,0,0,1,4.7.358,31.758,31.758,0,0,1,3.548.8,14.346,14.346,0,0,1,2.447.935q.962.495,1.347.715l-2.09,5.665a16.828,16.828,0,0,0-4.1-1.677A18.929,18.929,0,0,0,22.385-32.89ZM52.36-38.5q8.25,0,12.623,3.025t4.372,9.24q0,7.755-7.645,10.505,1.045,1.265,2.365,3.08T66.77-8.717Q68.145-6.6,69.41-4.373T71.665,0H63.91q-1.045-1.98-2.255-3.988t-2.448-3.9q-1.238-1.9-2.448-3.575t-2.255-3q-.77.055-1.32.055h-4.4V0h-6.93V-37.565a37.106,37.106,0,0,1,5.39-.742Q50.1-38.5,52.36-38.5Zm.5,6q-2.2,0-4.07.165v12.32H51.81a31.854,31.854,0,0,0,4.455-.275,9.372,9.372,0,0,0,3.217-.99,4.817,4.817,0,0,0,1.952-1.925,6.389,6.389,0,0,0,.66-3.08,6.132,6.132,0,0,0-.66-2.97,4.909,4.909,0,0,0-1.9-1.925A8.979,8.979,0,0,0,56.595-32.2,21.461,21.461,0,0,0,52.855-32.505ZM81.95-19.085a19.7,19.7,0,0,0,.77,5.693,12.48,12.48,0,0,0,2.228,4.345A10.1,10.1,0,0,0,88.495-6.27a10.917,10.917,0,0,0,4.73.99A10.785,10.785,0,0,0,97.9-6.27a10.1,10.1,0,0,0,3.548-2.778,12.48,12.48,0,0,0,2.228-4.345,19.7,19.7,0,0,0,.77-5.693,19.7,19.7,0,0,0-.77-5.692,12.48,12.48,0,0,0-2.228-4.345A10.1,10.1,0,0,0,97.9-31.9a10.785,10.785,0,0,0-4.675-.99,10.917,10.917,0,0,0-4.73.99,9.968,9.968,0,0,0-3.548,2.8A12.812,12.812,0,0,0,82.72-24.75,19.422,19.422,0,0,0,81.95-19.085Zm29.755,0a23.676,23.676,0,0,1-1.458,8.635,17.857,17.857,0,0,1-3.96,6.243A16.334,16.334,0,0,1,100.43-.44,20.1,20.1,0,0,1,93.28.825,20.321,20.321,0,0,1,86.1-.44a16.286,16.286,0,0,1-5.885-3.768A18.176,18.176,0,0,1,76.23-10.45a23.282,23.282,0,0,1-1.485-8.635,23.066,23.066,0,0,1,1.485-8.608,18.1,18.1,0,0,1,4.042-6.242,16.691,16.691,0,0,1,5.913-3.8A19.941,19.941,0,0,1,93.28-39a19.942,19.942,0,0,1,7.095,1.265,16.16,16.16,0,0,1,5.858,3.8,18.533,18.533,0,0,1,3.988,6.242A23.066,23.066,0,0,1,111.705-19.085Zm30.965-14.74q.88,2.97,1.87,6.188T146.6-21.2q1.072,3.218,2.145,6.325T150.81-9.02q.825-2.97,1.6-6.463t1.54-7.26q.77-3.767,1.512-7.673t1.4-7.7h7.15q-1.922,10.34-4.284,19.882T154.454,0h-6.669q-4.262-11.11-8.25-24.255Q137.5-17.6,135.4-11.605T131.22,0h-6.612q-2.963-8.69-5.3-18.233T115.06-38.115h7.425q.66,3.74,1.4,7.645t1.54,7.673q.8,3.768,1.622,7.288t1.65,6.49q1.045-2.8,2.117-5.913t2.118-6.325q1.045-3.217,2.007-6.407t1.788-6.16Z" transform="translate(627 422)" fill="#fff"/></g></g></svg>